<?xml version="1.0" encoding="utf-8"?>
<!-- Generator: Adobe Illustrator 22.1.0, SVG Export Plug-In . SVG Version: 6.00 Build 0)  -->
<svg version="1.1" id="Layer_1" xmlns="http://www.w3.org/2000/svg" xmlns:xlink="http://www.w3.org/1999/xlink" x="0px" y="0px"
	 viewBox="0 0 2592 756" style="enable-background:new 0 0 2592 756;" xml:space="preserve">
<style type="text/css">
	.st0{fill:none;stroke:#000000;stroke-width:0;stroke-miterlimit:10;}
</style>
<g transform="translate(22.5000185, 22.5000185) ">
	<polygon class="st0" points="-4.5,-4.5 51.9,-4.5 51.9,12.5 108.3,12.5 108.3,-4.5 142.3,-4.5 142.3,12.5 176.4,12.5 176.4,-4.5 
		210.4,-4.5 210.4,12.5 244.4,12.5 244.4,-4.5 278.4,-4.5 278.4,12.5 312.4,12.5 312.4,-4.5 346.4,-4.5 346.4,12.5 380.4,12.5 
		380.4,-4.5 414.5,-4.5 414.5,12.5 448.5,12.5 448.5,-4.5 482.5,-4.5 482.5,12.5 516.5,12.5 516.5,-4.5 550.5,-4.5 550.5,12.5 
		584.5,12.5 584.5,-4.5 618.6,-4.5 618.6,12.5 652.6,12.5 652.6,-4.5 686.6,-4.5 686.6,12.5 720.6,12.5 720.6,-4.5 754.6,-4.5 
		754.6,12.5 788.6,12.5 788.6,-4.5 822.6,-4.5 822.6,12.5 856.7,12.5 856.7,-4.5 890.7,-4.5 890.7,12.5 947.1,12.5 947.1,-4.5 
		1003.5,-4.5 1003.5,31.5 986.5,31.5 986.5,67.5 1003.5,67.5 1003.5,103.5 986.5,103.5 986.5,139.5 1003.5,139.5 1003.5,175.5 
		947.1,175.5 947.1,158.5 890.7,158.5 890.7,175.5 856.7,175.5 856.7,158.5 822.6,158.5 822.6,175.5 788.6,175.5 788.6,158.5 
		754.6,158.5 754.6,175.5 720.6,175.5 720.6,158.5 686.6,158.5 686.6,175.5 652.6,175.5 652.6,158.5 618.6,158.5 618.6,175.5 
		584.5,175.5 584.5,158.5 550.5,158.5 550.5,175.5 516.5,175.5 516.5,158.5 482.5,158.5 482.5,175.5 448.5,175.5 448.5,158.5 
		414.5,158.5 414.5,175.5 380.4,175.5 380.4,158.5 346.4,158.5 346.4,175.5 312.4,175.5 312.4,158.5 278.4,158.5 278.4,175.5 
		244.4,175.5 244.4,158.5 210.4,158.5 210.4,175.5 176.4,175.5 176.4,158.5 142.3,158.5 142.3,175.5 108.3,175.5 108.3,158.5 
		51.9,158.5 51.9,175.5 -4.5,175.5 -4.5,139.5 12.5,139.5 12.5,103.5 -4.5,103.5 -4.5,67.5 12.5,67.5 12.5,31.5 -4.5,31.5 	"/>
</g>
<g transform="translate(1282.5010545, 22.5000185) ">
	<polygon class="st0" points="-256.5,-4.5 -200.1,-4.5 -200.1,12.5 -143.7,12.5 -143.7,-4.5 -109.7,-4.5 -109.7,12.5 -75.7,12.5 
		-75.7,-4.5 -41.6,-4.5 -41.6,12.5 -7.6,12.5 -7.6,-4.5 26.4,-4.5 26.4,12.5 60.4,12.5 60.4,-4.5 94.4,-4.5 94.4,12.5 128.4,12.5 
		128.4,-4.5 162.5,-4.5 162.5,12.5 196.5,12.5 196.5,-4.5 230.5,-4.5 230.5,12.5 264.5,12.5 264.5,-4.5 298.5,-4.5 298.5,12.5 
		332.5,12.5 332.5,-4.5 366.6,-4.5 366.6,12.5 400.6,12.5 400.6,-4.5 434.6,-4.5 434.6,12.5 468.6,12.5 468.6,-4.5 502.6,-4.5 
		502.6,12.5 536.6,12.5 536.6,-4.5 570.6,-4.5 570.6,12.5 604.7,12.5 604.7,-4.5 638.7,-4.5 638.7,12.5 695.1,12.5 695.1,-4.5 
		751.5,-4.5 751.5,31.5 734.5,31.5 734.5,67.5 751.5,67.5 751.5,103.5 734.5,103.5 734.5,139.5 751.5,139.5 751.5,175.5 
		695.1,175.5 695.1,158.5 638.7,158.5 638.7,175.5 604.7,175.5 604.7,158.5 570.6,158.5 570.6,175.5 536.6,175.5 536.6,158.5 
		502.6,158.5 502.6,175.5 468.6,175.5 468.6,158.5 434.6,158.5 434.6,175.5 400.6,175.5 400.6,158.5 366.6,158.5 366.6,175.5 
		332.5,175.5 332.5,158.5 298.5,158.5 298.5,175.5 264.5,175.5 264.5,158.5 230.5,158.5 230.5,175.5 196.5,175.5 196.5,158.5 
		162.5,158.5 162.5,175.5 128.4,175.5 128.4,158.5 94.4,158.5 94.4,175.5 60.4,175.5 60.4,158.5 26.4,158.5 26.4,175.5 -7.6,175.5 
		-7.6,158.5 -41.6,158.5 -41.6,175.5 -75.7,175.5 -75.7,158.5 -109.7,158.5 -109.7,175.5 -143.7,175.5 -143.7,158.5 -200.1,158.5 
		-200.1,175.5 -256.5,175.5 -256.5,139.5 -239.5,139.5 -239.5,103.5 -256.5,103.5 -256.5,67.5 -239.5,67.5 -239.5,31.5 -256.5,31.5 
			"/>
</g>
<g transform="translate(2542.5020904999997, 22.5000185) ">
	<polygon class="st0" points="-491.5,-4.5 -450,-4.5 -450,12.5 -391.6,12.5 -391.6,-4.5 -357.6,-4.5 -357.6,12.5 -323.5,12.5 
		-323.5,-4.5 -289.5,-4.5 -289.5,12.5 -255.5,12.5 -255.5,-4.5 -221.5,-4.5 -221.5,12.5 -187.5,12.5 -187.5,-4.5 -153.5,-4.5 
		-153.5,12.5 -119.4,12.5 -119.4,-4.5 -85.4,-4.5 -85.4,12.5 -27,12.5 -27,-4.5 14.5,-4.5 14.5,31.5 31.5,31.5 31.5,67.5 14.5,67.5 
		14.5,103.5 31.5,103.5 31.5,139.5 14.5,139.5 14.5,175.5 -27,175.5 -27,158.5 -85.4,158.5 -85.4,175.5 -119.4,175.5 -119.4,158.5 
		-153.5,158.5 -153.5,175.5 -187.5,175.5 -187.5,158.5 -221.5,158.5 -221.5,175.5 -255.5,175.5 -255.5,158.5 -289.5,158.5 
		-289.5,175.5 -323.5,175.5 -323.5,158.5 -357.6,158.5 -357.6,175.5 -391.6,175.5 -391.6,158.5 -450,158.5 -450,175.5 -491.5,175.5 
		-491.5,139.5 -508.5,139.5 -508.5,103.5 -491.5,103.5 -491.5,67.5 -508.5,67.5 -508.5,31.5 -491.5,31.5 	"/>
</g>
<g transform="translate(2542.5020904999997, 247.50020349999997) ">
	<polygon class="st0" points="-491.5,-49.5 -450,-49.5 -450,-32.5 -391.6,-32.5 -391.6,-49.5 -357.6,-49.5 -357.6,-32.5 
		-323.5,-32.5 -323.5,-49.5 -289.5,-49.5 -289.5,-32.5 -255.5,-32.5 -255.5,-49.5 -221.5,-49.5 -221.5,-32.5 -187.5,-32.5 
		-187.5,-49.5 -153.5,-49.5 -153.5,-32.5 -119.4,-32.5 -119.4,-49.5 -85.4,-49.5 -85.4,-32.5 -27,-32.5 -27,-49.5 14.5,-49.5 
		14.5,-13.5 31.5,-13.5 31.5,22.5 14.5,22.5 14.5,58.5 31.5,58.5 31.5,94.5 14.5,94.5 14.5,130.5 -27,130.5 -27,113.5 -85.4,113.5 
		-85.4,130.5 -119.4,130.5 -119.4,113.5 -153.5,113.5 -153.5,130.5 -187.5,130.5 -187.5,113.5 -221.5,113.5 -221.5,130.5 
		-255.5,130.5 -255.5,113.5 -289.5,113.5 -289.5,130.5 -323.5,130.5 -323.5,113.5 -357.6,113.5 -357.6,130.5 -391.6,130.5 
		-391.6,113.5 -450,113.5 -450,130.5 -491.5,130.5 -491.5,94.5 -508.5,94.5 -508.5,58.5 -491.5,58.5 -491.5,22.5 -508.5,22.5 
		-508.5,-13.5 -491.5,-13.5 	"/>
</g>
<g transform="translate(22.5000185, 247.50020349999997) ">
	<polygon class="st0" points="12.5,-32.5 51.9,-32.5 51.9,-49.5 108.3,-49.5 108.3,-32.5 142.3,-32.5 142.3,-49.5 176.4,-49.5 
		176.4,-32.5 210.4,-32.5 210.4,-49.5 244.4,-49.5 244.4,-32.5 278.4,-32.5 278.4,-49.5 312.4,-49.5 312.4,-32.5 346.4,-32.5 
		346.4,-49.5 380.4,-49.5 380.4,-32.5 414.5,-32.5 414.5,-49.5 448.5,-49.5 448.5,-32.5 482.5,-32.5 482.5,-49.5 516.5,-49.5 
		516.5,-32.5 550.5,-32.5 550.5,-49.5 584.5,-49.5 584.5,-32.5 618.6,-32.5 618.6,-49.5 652.6,-49.5 652.6,-32.5 686.6,-32.5 
		686.6,-49.5 720.6,-49.5 720.6,-32.5 754.6,-32.5 754.6,-49.5 788.6,-49.5 788.6,-32.5 822.6,-32.5 822.6,-49.5 856.7,-49.5 
		856.7,-32.5 890.7,-32.5 890.7,-49.5 947.1,-49.5 947.1,-32.5 986.5,-32.5 986.5,9 1003.5,9 1003.5,67.4 986.5,67.4 986.5,101.4 
		1003.5,101.4 1003.5,135.5 986.5,135.5 986.5,169.5 1003.5,169.5 1003.5,203.5 986.5,203.5 986.5,237.5 1003.5,237.5 1003.5,271.5 
		986.5,271.5 986.5,305.5 1003.5,305.5 1003.5,339.6 986.5,339.6 986.5,373.6 1003.5,373.6 1003.5,432 986.5,432 986.5,473.5 
		947.1,473.5 947.1,490.5 890.7,490.5 890.7,473.5 856.7,473.5 856.7,490.5 822.6,490.5 822.6,473.5 788.6,473.5 788.6,490.5 
		754.6,490.5 754.6,473.5 720.6,473.5 720.6,490.5 686.6,490.5 686.6,473.5 652.6,473.5 652.6,490.5 618.6,490.5 618.6,473.5 
		584.5,473.5 584.5,490.5 550.5,490.5 550.5,473.5 516.5,473.5 516.5,490.5 482.5,490.5 482.5,473.5 448.5,473.5 448.5,490.5 
		414.5,490.5 414.5,473.5 380.4,473.5 380.4,490.5 346.4,490.5 346.4,473.5 312.4,473.5 312.4,490.5 278.4,490.5 278.4,473.5 
		244.4,473.5 244.4,490.5 210.4,490.5 210.4,473.5 176.4,473.5 176.4,490.5 142.3,490.5 142.3,473.5 108.3,473.5 108.3,490.5 
		51.9,490.5 51.9,473.5 12.5,473.5 12.5,432 -4.5,432 -4.5,373.6 12.5,373.6 12.5,339.6 -4.5,339.6 -4.5,305.5 12.5,305.5 
		12.5,271.5 -4.5,271.5 -4.5,237.5 12.5,237.5 12.5,203.5 -4.5,203.5 -4.5,169.5 12.5,169.5 12.5,135.5 -4.5,135.5 -4.5,101.4 
		12.5,101.4 12.5,67.4 -4.5,67.4 -4.5,9 12.5,9 	"/>
</g>
<g transform="translate(1282.5010545, 247.50020349999997) ">
	<polygon class="st0" points="-239.5,-32.5 -200.1,-32.5 -200.1,-49.5 -143.7,-49.5 -143.7,-32.5 -109.7,-32.5 -109.7,-49.5 
		-75.7,-49.5 -75.7,-32.5 -41.6,-32.5 -41.6,-49.5 -7.6,-49.5 -7.6,-32.5 26.4,-32.5 26.4,-49.5 60.4,-49.5 60.4,-32.5 94.4,-32.5 
		94.4,-49.5 128.4,-49.5 128.4,-32.5 162.5,-32.5 162.5,-49.5 196.5,-49.5 196.5,-32.5 230.5,-32.5 230.5,-49.5 264.5,-49.5 
		264.5,-32.5 298.5,-32.5 298.5,-49.5 332.5,-49.5 332.5,-32.5 366.6,-32.5 366.6,-49.5 400.6,-49.5 400.6,-32.5 434.6,-32.5 
		434.6,-49.5 468.6,-49.5 468.6,-32.5 502.6,-32.5 502.6,-49.5 536.6,-49.5 536.6,-32.5 570.6,-32.5 570.6,-49.5 604.7,-49.5 
		604.7,-32.5 638.7,-32.5 638.7,-49.5 695.1,-49.5 695.1,-32.5 734.5,-32.5 734.5,9 751.5,9 751.5,67.4 734.5,67.4 734.5,101.4 
		751.5,101.4 751.5,135.5 734.5,135.5 734.5,169.5 751.5,169.5 751.5,203.5 734.5,203.5 734.5,237.5 751.5,237.5 751.5,271.5 
		734.5,271.5 734.5,305.5 751.5,305.5 751.5,339.6 734.5,339.6 734.5,373.6 751.5,373.6 751.5,432 734.5,432 734.5,473.5 
		695.1,473.5 695.1,490.5 638.7,490.5 638.7,473.5 604.7,473.5 604.7,490.5 570.6,490.5 570.6,473.5 536.6,473.5 536.6,490.5 
		502.6,490.5 502.6,473.5 468.6,473.5 468.6,490.5 434.6,490.5 434.6,473.5 400.6,473.5 400.6,490.5 366.6,490.5 366.6,473.5 
		332.5,473.5 332.5,490.5 298.5,490.5 298.5,473.5 264.5,473.5 264.5,490.5 230.5,490.5 230.5,473.5 196.5,473.5 196.5,490.5 
		162.5,490.5 162.5,473.5 128.4,473.5 128.4,490.5 94.4,490.5 94.4,473.5 60.4,473.5 60.4,490.5 26.4,490.5 26.4,473.5 -7.6,473.5 
		-7.6,490.5 -41.6,490.5 -41.6,473.5 -75.7,473.5 -75.7,490.5 -109.7,490.5 -109.7,473.5 -143.7,473.5 -143.7,490.5 -200.1,490.5 
		-200.1,473.5 -239.5,473.5 -239.5,432 -256.5,432 -256.5,373.6 -239.5,373.6 -239.5,339.6 -256.5,339.6 -256.5,305.5 -239.5,305.5 
		-239.5,271.5 -256.5,271.5 -256.5,237.5 -239.5,237.5 -239.5,203.5 -256.5,203.5 -256.5,169.5 -239.5,169.5 -239.5,135.5 
		-256.5,135.5 -256.5,101.4 -239.5,101.4 -239.5,67.4 -256.5,67.4 -256.5,9 -239.5,9 	"/>
</g>
</svg>
